G04 #@! TF.FileFunction,Profile,NP*
%FSLAX46Y46*%
G04 Gerber Fmt 4.6, Leading zero omitted, Abs format (unit mm)*
G04 Created by KiCad (PCBNEW 4.0.6) date 07/06/17 20:51:38*
%MOMM*%
%LPD*%
G01*
G04 APERTURE LIST*
%ADD10C,0.100000*%
%ADD11C,0.150000*%
G04 APERTURE END LIST*
D10*
D11*
X68000000Y-101500000D02*
X68500000Y-102000000D01*
X65000000Y-98500000D02*
X65500000Y-99000000D01*
X68500000Y-102000000D02*
X67000000Y-103500000D01*
X66000000Y-103500000D02*
X68000000Y-101500000D01*
X47500000Y-123000000D02*
G75*
G03X67000000Y-103500000I8000000J11500000D01*
G01*
X65500000Y-99000000D02*
X63500000Y-101000000D01*
X63500000Y-100000000D02*
X65000000Y-98500000D01*
X63500000Y-101000000D02*
G75*
G03X66000000Y-103500000I-8000000J-10500000D01*
G01*
X46000000Y-124500000D02*
X42500000Y-121000000D01*
X42500000Y-121000000D02*
X44000000Y-119500000D01*
X63500000Y-100000000D02*
G75*
G03X44000000Y-119500000I-8000000J-11500000D01*
G01*
X47500000Y-123000000D02*
X46000000Y-124500000D01*
X68000000Y-68500000D02*
X68500000Y-69000000D01*
X65000000Y-65500000D02*
X65500000Y-66000000D01*
X68500000Y-69000000D02*
X67000000Y-70500000D01*
X66000000Y-70500000D02*
X68000000Y-68500000D01*
X47500000Y-90000000D02*
G75*
G03X67000000Y-70500000I8000000J11500000D01*
G01*
X65500000Y-66000000D02*
X63500000Y-68000000D01*
X63500000Y-67000000D02*
X65000000Y-65500000D01*
X63500000Y-68000000D02*
G75*
G03X66000000Y-70500000I-8000000J-10500000D01*
G01*
X46000000Y-91500000D02*
X42500000Y-88000000D01*
X42500000Y-88000000D02*
X44000000Y-86500000D01*
X63500000Y-67000000D02*
G75*
G03X44000000Y-86500000I-8000000J-11500000D01*
G01*
X47500000Y-90000000D02*
X46000000Y-91500000D01*
X68000000Y-35500000D02*
X68500000Y-36000000D01*
X65000000Y-32500000D02*
X65500000Y-33000000D01*
X68500000Y-36000000D02*
X67000000Y-37500000D01*
X66000000Y-37500000D02*
X68000000Y-35500000D01*
X47500000Y-57000000D02*
G75*
G03X67000000Y-37500000I8000000J11500000D01*
G01*
X65500000Y-33000000D02*
X63500000Y-35000000D01*
X63500000Y-34000000D02*
X65000000Y-32500000D01*
X63500000Y-35000000D02*
G75*
G03X66000000Y-37500000I-8000000J-10500000D01*
G01*
X46000000Y-58500000D02*
X42500000Y-55000000D01*
X42500000Y-55000000D02*
X44000000Y-53500000D01*
X63500000Y-34000000D02*
G75*
G03X44000000Y-53500000I-8000000J-11500000D01*
G01*
X47500000Y-57000000D02*
X46000000Y-58500000D01*
X101000000Y-35500000D02*
X101500000Y-36000000D01*
X98000000Y-32500000D02*
X98500000Y-33000000D01*
X101500000Y-36000000D02*
X100000000Y-37500000D01*
X99000000Y-37500000D02*
X101000000Y-35500000D01*
X80500000Y-57000000D02*
G75*
G03X100000000Y-37500000I8000000J11500000D01*
G01*
X98500000Y-33000000D02*
X96500000Y-35000000D01*
X96500000Y-34000000D02*
X98000000Y-32500000D01*
X96500000Y-35000000D02*
G75*
G03X99000000Y-37500000I-8000000J-10500000D01*
G01*
X79000000Y-58500000D02*
X75500000Y-55000000D01*
X75500000Y-55000000D02*
X77000000Y-53500000D01*
X96500000Y-34000000D02*
G75*
G03X77000000Y-53500000I-8000000J-11500000D01*
G01*
X80500000Y-57000000D02*
X79000000Y-58500000D01*
X101000000Y-68500000D02*
X101500000Y-69000000D01*
X98000000Y-65500000D02*
X98500000Y-66000000D01*
X101500000Y-69000000D02*
X100000000Y-70500000D01*
X99000000Y-70500000D02*
X101000000Y-68500000D01*
X80500000Y-90000000D02*
G75*
G03X100000000Y-70500000I8000000J11500000D01*
G01*
X98500000Y-66000000D02*
X96500000Y-68000000D01*
X96500000Y-67000000D02*
X98000000Y-65500000D01*
X96500000Y-68000000D02*
G75*
G03X99000000Y-70500000I-8000000J-10500000D01*
G01*
X79000000Y-91500000D02*
X75500000Y-88000000D01*
X75500000Y-88000000D02*
X77000000Y-86500000D01*
X96500000Y-67000000D02*
G75*
G03X77000000Y-86500000I-8000000J-11500000D01*
G01*
X80500000Y-90000000D02*
X79000000Y-91500000D01*
X101000000Y-101500000D02*
X101500000Y-102000000D01*
X98000000Y-98500000D02*
X98500000Y-99000000D01*
X101500000Y-102000000D02*
X100000000Y-103500000D01*
X99000000Y-103500000D02*
X101000000Y-101500000D01*
X80500000Y-123000000D02*
G75*
G03X100000000Y-103500000I8000000J11500000D01*
G01*
X98500000Y-99000000D02*
X96500000Y-101000000D01*
X96500000Y-100000000D02*
X98000000Y-98500000D01*
X96500000Y-101000000D02*
G75*
G03X99000000Y-103500000I-8000000J-10500000D01*
G01*
X79000000Y-124500000D02*
X75500000Y-121000000D01*
X75500000Y-121000000D02*
X77000000Y-119500000D01*
X96500000Y-100000000D02*
G75*
G03X77000000Y-119500000I-8000000J-11500000D01*
G01*
X80500000Y-123000000D02*
X79000000Y-124500000D01*
X134000000Y-101500000D02*
X134500000Y-102000000D01*
X131000000Y-98500000D02*
X131500000Y-99000000D01*
X134500000Y-102000000D02*
X133000000Y-103500000D01*
X132000000Y-103500000D02*
X134000000Y-101500000D01*
X113500000Y-123000000D02*
G75*
G03X133000000Y-103500000I8000000J11500000D01*
G01*
X131500000Y-99000000D02*
X129500000Y-101000000D01*
X129500000Y-100000000D02*
X131000000Y-98500000D01*
X129500000Y-101000000D02*
G75*
G03X132000000Y-103500000I-8000000J-10500000D01*
G01*
X112000000Y-124500000D02*
X108500000Y-121000000D01*
X108500000Y-121000000D02*
X110000000Y-119500000D01*
X129500000Y-100000000D02*
G75*
G03X110000000Y-119500000I-8000000J-11500000D01*
G01*
X113500000Y-123000000D02*
X112000000Y-124500000D01*
X134000000Y-68500000D02*
X134500000Y-69000000D01*
X131000000Y-65500000D02*
X131500000Y-66000000D01*
X134500000Y-69000000D02*
X133000000Y-70500000D01*
X132000000Y-70500000D02*
X134000000Y-68500000D01*
X113500000Y-90000000D02*
G75*
G03X133000000Y-70500000I8000000J11500000D01*
G01*
X131500000Y-66000000D02*
X129500000Y-68000000D01*
X129500000Y-67000000D02*
X131000000Y-65500000D01*
X129500000Y-68000000D02*
G75*
G03X132000000Y-70500000I-8000000J-10500000D01*
G01*
X112000000Y-91500000D02*
X108500000Y-88000000D01*
X108500000Y-88000000D02*
X110000000Y-86500000D01*
X129500000Y-67000000D02*
G75*
G03X110000000Y-86500000I-8000000J-11500000D01*
G01*
X113500000Y-90000000D02*
X112000000Y-91500000D01*
X129500000Y-35000000D02*
G75*
G03X132000000Y-37500000I-8000000J-10500000D01*
G01*
X134500000Y-36000000D02*
X133000000Y-37500000D01*
X131000000Y-32500000D02*
X131500000Y-33000000D01*
X134000000Y-35500000D02*
X134500000Y-36000000D01*
X132000000Y-37500000D02*
X134000000Y-35500000D01*
X131500000Y-33000000D02*
X129500000Y-35000000D01*
X129500000Y-34000000D02*
X131000000Y-32500000D01*
X129500000Y-34000000D02*
G75*
G03X110000000Y-53500000I-8000000J-11500000D01*
G01*
X113500000Y-57000000D02*
G75*
G03X133000000Y-37500000I8000000J11500000D01*
G01*
X112000000Y-58500000D02*
X108500000Y-55000000D01*
X113500000Y-57000000D02*
X112000000Y-58500000D01*
X108500000Y-55000000D02*
X110000000Y-53500000D01*
X41000000Y-31000000D02*
X140000000Y-31000000D01*
X41000000Y-130000000D02*
X41000000Y-31000000D01*
X41000000Y-130000000D02*
X140000000Y-130000000D01*
X140000000Y-130000000D02*
X140000000Y-31000000D01*
M02*
