G04 #@! TF.FileFunction,Soldermask,Top*
%FSLAX46Y46*%
G04 Gerber Fmt 4.6, Leading zero omitted, Abs format (unit mm)*
G04 Created by KiCad (PCBNEW 4.0.6) date 07/06/17 20:51:38*
%MOMM*%
%LPD*%
G01*
G04 APERTURE LIST*
%ADD10C,0.100000*%
G04 APERTURE END LIST*
D10*
G36*
X135878680Y-63861270D02*
X134888730Y-62871320D01*
X136585786Y-61174264D01*
X137575736Y-62164214D01*
X135878680Y-63861270D01*
X135878680Y-63861270D01*
G37*
G36*
X137646447Y-62093503D02*
X136656497Y-61103553D01*
X138353553Y-59406497D01*
X139343503Y-60396447D01*
X137646447Y-62093503D01*
X137646447Y-62093503D01*
G37*
G36*
X102878680Y-63861270D02*
X101888730Y-62871320D01*
X103585786Y-61174264D01*
X104575736Y-62164214D01*
X102878680Y-63861270D01*
X102878680Y-63861270D01*
G37*
G36*
X104646447Y-62093503D02*
X103656497Y-61103553D01*
X105353553Y-59406497D01*
X106343503Y-60396447D01*
X104646447Y-62093503D01*
X104646447Y-62093503D01*
G37*
G36*
X69878680Y-63861270D02*
X68888730Y-62871320D01*
X70585786Y-61174264D01*
X71575736Y-62164214D01*
X69878680Y-63861270D01*
X69878680Y-63861270D01*
G37*
G36*
X71646447Y-62093503D02*
X70656497Y-61103553D01*
X72353553Y-59406497D01*
X73343503Y-60396447D01*
X71646447Y-62093503D01*
X71646447Y-62093503D01*
G37*
G36*
X69878680Y-96861270D02*
X68888730Y-95871320D01*
X70585786Y-94174264D01*
X71575736Y-95164214D01*
X69878680Y-96861270D01*
X69878680Y-96861270D01*
G37*
G36*
X71646447Y-95093503D02*
X70656497Y-94103553D01*
X72353553Y-92406497D01*
X73343503Y-93396447D01*
X71646447Y-95093503D01*
X71646447Y-95093503D01*
G37*
G36*
X102878680Y-96861270D02*
X101888730Y-95871320D01*
X103585786Y-94174264D01*
X104575736Y-95164214D01*
X102878680Y-96861270D01*
X102878680Y-96861270D01*
G37*
G36*
X104646447Y-95093503D02*
X103656497Y-94103553D01*
X105353553Y-92406497D01*
X106343503Y-93396447D01*
X104646447Y-95093503D01*
X104646447Y-95093503D01*
G37*
G36*
X135878680Y-96861270D02*
X134888730Y-95871320D01*
X136585786Y-94174264D01*
X137575736Y-95164214D01*
X135878680Y-96861270D01*
X135878680Y-96861270D01*
G37*
G36*
X137646447Y-95093503D02*
X136656497Y-94103553D01*
X138353553Y-92406497D01*
X139343503Y-93396447D01*
X137646447Y-95093503D01*
X137646447Y-95093503D01*
G37*
G36*
X69878680Y-129861270D02*
X68888730Y-128871320D01*
X70585786Y-127174264D01*
X71575736Y-128164214D01*
X69878680Y-129861270D01*
X69878680Y-129861270D01*
G37*
G36*
X71646447Y-128093503D02*
X70656497Y-127103553D01*
X72353553Y-125406497D01*
X73343503Y-126396447D01*
X71646447Y-128093503D01*
X71646447Y-128093503D01*
G37*
G36*
X102878680Y-129861270D02*
X101888730Y-128871320D01*
X103585786Y-127174264D01*
X104575736Y-128164214D01*
X102878680Y-129861270D01*
X102878680Y-129861270D01*
G37*
G36*
X104646447Y-128093503D02*
X103656497Y-127103553D01*
X105353553Y-125406497D01*
X106343503Y-126396447D01*
X104646447Y-128093503D01*
X104646447Y-128093503D01*
G37*
G36*
X135878680Y-129861270D02*
X134888730Y-128871320D01*
X136585786Y-127174264D01*
X137575736Y-128164214D01*
X135878680Y-129861270D01*
X135878680Y-129861270D01*
G37*
G36*
X137646447Y-128093503D02*
X136656497Y-127103553D01*
X138353553Y-125406497D01*
X139343503Y-126396447D01*
X137646447Y-128093503D01*
X137646447Y-128093503D01*
G37*
M02*
