G04 #@! TF.FileFunction,Legend,Top*
%FSLAX46Y46*%
G04 Gerber Fmt 4.6, Leading zero omitted, Abs format (unit mm)*
G04 Created by KiCad (PCBNEW 4.0.6) date 07/06/17 20:51:38*
%MOMM*%
%LPD*%
G01*
G04 APERTURE LIST*
%ADD10C,0.100000*%
%ADD11C,0.200000*%
%ADD12C,0.150000*%
G04 APERTURE END LIST*
D10*
D11*
X55500000Y-111500000D02*
X74000000Y-111500000D01*
X55500000Y-130000000D02*
X55500000Y-111500000D01*
X55500000Y-78500000D02*
X74000000Y-78500000D01*
X55500000Y-97000000D02*
X55500000Y-78500000D01*
X55500000Y-45500000D02*
X74000000Y-45500000D01*
X55500000Y-64000000D02*
X55500000Y-45500000D01*
X88500000Y-45500000D02*
X107000000Y-45500000D01*
X88500000Y-64000000D02*
X88500000Y-45500000D01*
X88500000Y-78500000D02*
X107000000Y-78500000D01*
X88500000Y-97000000D02*
X88500000Y-78500000D01*
X88500000Y-111500000D02*
X107000000Y-111500000D01*
X88500000Y-130000000D02*
X88500000Y-111500000D01*
X121500000Y-111500000D02*
X140000000Y-111500000D01*
X121500000Y-130000000D02*
X121500000Y-111500000D01*
X121500000Y-78500000D02*
X140000000Y-78500000D01*
X121500000Y-97000000D02*
X121500000Y-78500000D01*
X121500000Y-64000000D02*
X121500000Y-45500000D01*
X121500000Y-45500000D02*
X140000000Y-45500000D01*
X55500000Y-45500000D02*
X74000000Y-45500000D01*
X121500000Y-78500000D02*
X140000000Y-78500000D01*
X55500000Y-64000000D02*
X55500000Y-45500000D01*
X88500000Y-64000000D02*
X88500000Y-45500000D01*
X88500000Y-45500000D02*
X107000000Y-45500000D01*
X55500000Y-78500000D02*
X74000000Y-78500000D01*
X55500000Y-97000000D02*
X55500000Y-78500000D01*
X88500000Y-97000000D02*
X88500000Y-78500000D01*
X88500000Y-78500000D02*
X107000000Y-78500000D01*
X121500000Y-97000000D02*
X121500000Y-78500000D01*
X55500000Y-130000000D02*
X55500000Y-111500000D01*
X55500000Y-111500000D02*
X74000000Y-111500000D01*
X88500000Y-130000000D02*
X88500000Y-111500000D01*
X88500000Y-111500000D02*
X107000000Y-111500000D01*
X121500000Y-130000000D02*
X121500000Y-111500000D01*
X121500000Y-111500000D02*
X140000000Y-111500000D01*
D12*
X128807612Y-50850505D02*
X131636039Y-53678932D01*
X126332738Y-53325379D02*
X128807612Y-50850505D01*
X129161165Y-56153806D02*
X126332738Y-53325379D01*
X130928932Y-55800252D02*
X130221825Y-55093146D01*
X135171573Y-62871320D02*
X129514719Y-57214466D01*
X135171573Y-62871320D02*
X138353553Y-59689340D01*
X138353553Y-59689340D02*
X132696699Y-54032486D01*
X129514719Y-57214466D02*
X132696699Y-54032486D01*
X129161165Y-56153806D02*
X131636039Y-53678932D01*
X131282485Y-55446699D02*
X130575379Y-54739592D01*
X95807612Y-50850505D02*
X98636039Y-53678932D01*
X93332738Y-53325379D02*
X95807612Y-50850505D01*
X96161165Y-56153806D02*
X93332738Y-53325379D01*
X97928932Y-55800252D02*
X97221825Y-55093146D01*
X102171573Y-62871320D02*
X96514719Y-57214466D01*
X102171573Y-62871320D02*
X105353553Y-59689340D01*
X105353553Y-59689340D02*
X99696699Y-54032486D01*
X96514719Y-57214466D02*
X99696699Y-54032486D01*
X96161165Y-56153806D02*
X98636039Y-53678932D01*
X98282485Y-55446699D02*
X97575379Y-54739592D01*
X62807612Y-50850505D02*
X65636039Y-53678932D01*
X60332738Y-53325379D02*
X62807612Y-50850505D01*
X63161165Y-56153806D02*
X60332738Y-53325379D01*
X64928932Y-55800252D02*
X64221825Y-55093146D01*
X69171573Y-62871320D02*
X63514719Y-57214466D01*
X69171573Y-62871320D02*
X72353553Y-59689340D01*
X72353553Y-59689340D02*
X66696699Y-54032486D01*
X63514719Y-57214466D02*
X66696699Y-54032486D01*
X63161165Y-56153806D02*
X65636039Y-53678932D01*
X65282485Y-55446699D02*
X64575379Y-54739592D01*
X62807612Y-83850505D02*
X65636039Y-86678932D01*
X60332738Y-86325379D02*
X62807612Y-83850505D01*
X63161165Y-89153806D02*
X60332738Y-86325379D01*
X64928932Y-88800252D02*
X64221825Y-88093146D01*
X69171573Y-95871320D02*
X63514719Y-90214466D01*
X69171573Y-95871320D02*
X72353553Y-92689340D01*
X72353553Y-92689340D02*
X66696699Y-87032486D01*
X63514719Y-90214466D02*
X66696699Y-87032486D01*
X63161165Y-89153806D02*
X65636039Y-86678932D01*
X65282485Y-88446699D02*
X64575379Y-87739592D01*
X95807612Y-83850505D02*
X98636039Y-86678932D01*
X93332738Y-86325379D02*
X95807612Y-83850505D01*
X96161165Y-89153806D02*
X93332738Y-86325379D01*
X97928932Y-88800252D02*
X97221825Y-88093146D01*
X102171573Y-95871320D02*
X96514719Y-90214466D01*
X102171573Y-95871320D02*
X105353553Y-92689340D01*
X105353553Y-92689340D02*
X99696699Y-87032486D01*
X96514719Y-90214466D02*
X99696699Y-87032486D01*
X96161165Y-89153806D02*
X98636039Y-86678932D01*
X98282485Y-88446699D02*
X97575379Y-87739592D01*
X128807612Y-83850505D02*
X131636039Y-86678932D01*
X126332738Y-86325379D02*
X128807612Y-83850505D01*
X129161165Y-89153806D02*
X126332738Y-86325379D01*
X130928932Y-88800252D02*
X130221825Y-88093146D01*
X135171573Y-95871320D02*
X129514719Y-90214466D01*
X135171573Y-95871320D02*
X138353553Y-92689340D01*
X138353553Y-92689340D02*
X132696699Y-87032486D01*
X129514719Y-90214466D02*
X132696699Y-87032486D01*
X129161165Y-89153806D02*
X131636039Y-86678932D01*
X131282485Y-88446699D02*
X130575379Y-87739592D01*
X62807612Y-116850505D02*
X65636039Y-119678932D01*
X60332738Y-119325379D02*
X62807612Y-116850505D01*
X63161165Y-122153806D02*
X60332738Y-119325379D01*
X64928932Y-121800252D02*
X64221825Y-121093146D01*
X69171573Y-128871320D02*
X63514719Y-123214466D01*
X69171573Y-128871320D02*
X72353553Y-125689340D01*
X72353553Y-125689340D02*
X66696699Y-120032486D01*
X63514719Y-123214466D02*
X66696699Y-120032486D01*
X63161165Y-122153806D02*
X65636039Y-119678932D01*
X65282485Y-121446699D02*
X64575379Y-120739592D01*
X95807612Y-116850505D02*
X98636039Y-119678932D01*
X93332738Y-119325379D02*
X95807612Y-116850505D01*
X96161165Y-122153806D02*
X93332738Y-119325379D01*
X97928932Y-121800252D02*
X97221825Y-121093146D01*
X102171573Y-128871320D02*
X96514719Y-123214466D01*
X102171573Y-128871320D02*
X105353553Y-125689340D01*
X105353553Y-125689340D02*
X99696699Y-120032486D01*
X96514719Y-123214466D02*
X99696699Y-120032486D01*
X96161165Y-122153806D02*
X98636039Y-119678932D01*
X98282485Y-121446699D02*
X97575379Y-120739592D01*
X128807612Y-116850505D02*
X131636039Y-119678932D01*
X126332738Y-119325379D02*
X128807612Y-116850505D01*
X129161165Y-122153806D02*
X126332738Y-119325379D01*
X130928932Y-121800252D02*
X130221825Y-121093146D01*
X135171573Y-128871320D02*
X129514719Y-123214466D01*
X135171573Y-128871320D02*
X138353553Y-125689340D01*
X138353553Y-125689340D02*
X132696699Y-120032486D01*
X129514719Y-123214466D02*
X132696699Y-120032486D01*
X129161165Y-122153806D02*
X131636039Y-119678932D01*
X131282485Y-121446699D02*
X130575379Y-120739592D01*
M02*
